<svg version="1.1" id="Flute--Streamline-Noto-Emoji" xmlns="http://www.w3.org/2000/svg" xmlns:xlink="http://www.w3.org/1999/xlink" x="0" y="0" viewBox="0 0 128 128" xml:space="preserve" enable-background="new 0 0 128 128" height="32" width="32">
  <desc>
    Flute Streamline Emoji: https://streamlinehq.com
  </desc>
  <g>
    <path d="M119.02 7c-4.41-3.99-9.01-2.98-10.56-2.48-.33.11-.63.29-.88.54L6.06 104.96l16.95 16.95 100.33-103.4c.35-.37.58-.84.63-1.34.15-1.71-.1-5.79-4.95-10.17z" fill="#F6BC41"></path>
    <path d="M30.82 113.89c1.09-4.22-.25-9.17-3.91-12.83s-8.7-5.01-12.91-3.92l-7.93 7.81 16.95 16.95 7.8-8.01z" fill="#A65F3E"></path>
    <path transform="rotate(-45.001 14.631 113.343)" d="M5.55 113.34a9.08 11.99 0 1 0 18.16 0 9.08 11.99 0 1 0-18.16 0" fill="#F6BC41"></path>
    <path transform="rotate(-45.001 14.631 113.343)" d="M8.4 113.34a6.23 8.23 0 1 0 12.46 0 6.23 8.23 0 1 0-12.46 0" fill="#3E2723"></path>
    <g>
      <g>
        <g>
          <path transform="rotate(-45.821 30.038 92.326)" d="M25.58 92.33a4.46 4.57 0 1 0 8.92 0 4.46 4.57 0 1 0-8.92 0" fill="#3E2723"></path>
          <path d="M28.64 90.88c1.55-1.49 4-1.48 5.62-.04-.22-.58-.55-1.12-1-1.6-1.75-1.82-4.61-1.91-6.38-.2-1.78 1.7-1.8 4.56-.05 6.38.46.47.99.83 1.56 1.07-1.39-1.68-1.3-4.12.25-5.61z" fill="#A65F3E"></path>
        </g>
        <g>
          <path transform="rotate(-45.847 40.227 82.181)" d="M35.92 82.19a4.31 4.41 0 1 0 8.62 0 4.31 4.41 0 1 0-8.62 0" fill="#3E2723"></path>
          <path d="M38.88 80.78c1.5-1.44 3.87-1.43 5.43-.04-.21-.56-.53-1.08-.97-1.54-1.69-1.76-4.45-1.84-6.17-.2-1.72 1.65-1.74 4.41-.05 6.16.44.46.96.8 1.5 1.03-1.33-1.61-1.24-3.97.26-5.41z" fill="#A65F3E"></path>
        </g>
        <g>
          <path transform="rotate(-45.871 50.423 72.04)" d="M46.27 72.04a4.16 4.26 0 1 0 8.32 0 4.16 4.26 0 1 0-8.32 0" fill="#3E2723"></path>
          <path d="M49.12 70.69c1.45-1.39 3.73-1.38 5.24-.04-.2-.54-.51-1.05-.94-1.49-1.63-1.69-4.3-1.78-5.95-.19-1.66 1.59-1.68 4.25-.05 5.95.43.44.92.77 1.45.99-1.28-1.55-1.2-3.83.25-5.22z" fill="#A65F3E"></path>
        </g>
        <g>
          <path transform="rotate(-45.899 60.622 61.9)" d="M56.61 61.9a4.01 4.1 0 1 0 8.02 0 4.01 4.1 0 1 0-8.02 0" fill="#3E2723"></path>
          <path d="M59.36 60.59c1.4-1.34 3.6-1.33 5.05-.04-.19-.52-.49-1.01-.9-1.43-1.57-1.63-4.14-1.71-5.74-.18-1.6 1.53-1.62 4.1-.05 5.73.41.43.89.74 1.4.96-1.24-1.5-1.16-3.7.24-5.04z" fill="#A65F3E"></path>
        </g>
        <g>
          <path transform="rotate(-45.933 70.814 51.755)" d="M66.95 51.75a3.86 3.95 0 1 0 7.72 0 3.86 3.95 0 1 0-7.72 0" fill="#3E2723"></path>
          <path d="M69.6 50.5c1.34-1.29 3.47-1.28 4.86-.03-.19-.5-.47-.97-.87-1.38-1.51-1.57-3.99-1.65-5.52-.17-1.54 1.48-1.56 3.95-.05 5.52.39.41.86.72 1.35.92-1.19-1.46-1.11-3.58.23-4.86z" fill="#A65F3E"></path>
        </g>
        <g>
          <path transform="rotate(-45.97 81 41.608)" d="M77.29 41.61a3.71 3.8 0 1 0 7.42 0 3.71 3.8 0 1 0-7.42 0" fill="#3E2723"></path>
          <path d="M79.84 40.4c1.29-1.24 3.33-1.23 4.67-.03-.18-.48-.46-.93-.83-1.33-1.45-1.51-3.83-1.58-5.31-.17-1.48 1.42-1.5 3.79-.05 5.3.38.39.82.69 1.29.89-1.14-1.39-1.06-3.42.23-4.66z" fill="#A65F3E"></path>
        </g>
      </g>
      <g>
        <path transform="rotate(-43.549 106.671 15.015)" d="M103.25 15.02a3.42 3.63 0 1 0 6.84 0 3.42 3.63 0 1 0-6.84 0" fill="#3E2723"></path>
        <path d="M105.58 13.84c1.21-1.12 3.12-1.04 4.38.14-.17-.46-.43-.89-.78-1.28-1.36-1.47-3.59-1.63-4.98-.35-1.39 1.28-1.4 3.51-.04 4.98.36.38.77.68 1.21.88-1.07-1.34-1-3.25.21-4.37z" fill="#A65F3E"></path>
      </g>
    </g>
    <path d="M108.54 33.89s.68-5.63-4.64-10.95-10.09-4.34-10.09-4.34l-6.16 6.07s6.23-.11 10.43 4.09 4.7 11.04 4.7 11.04l5.76-5.91z" fill="#A65F3E"></path>
    <path d="m14.8 100.25 2.07-1.85c.41-.37.95-.56 1.5-.52 1.43.09 4.35.68 7.6 3.66.62.57.64 1.55.06 2.15-.73.75-1.7 1.76-2.41 2.5-.51.53-1.35.49-1.85-.05-1.96-2.11-4.62-3.21-6.49-3.76-.94-.27-1.21-1.48-.48-2.13z" fill="#DE7340"></path>
    <path d="m92.15 22.94 2.95-2.71c.25-.22.8-.51 1.14-.48 1.51.14 3.92.64 7.26 3.97.81.81.83 1.69.16 2.39l-2.11 2.13c-.68.7-1.71.62-2.4-.07-1.98-1.97-4.58-3.09-6.37-3.59-.88-.26-1.31-1.03-.63-1.64z" fill="#DE7340"></path>
  </g>
</svg>